<svg xmlns="http://www.w3.org/2000/svg" xmlns:xlink="http://www.w3.org/1999/xlink" xml:space="preserve" version="1.1" style="shape-rendering:geometricPrecision;text-rendering:geometricPrecision;image-rendering:optimizeQuality;" viewBox="0 0 333 416.25" x="0px" y="0px" fill-rule="evenodd" clip-rule="evenodd"><defs><style type="text/css">

    .fil0 {fill:yellow}

  </style></defs><g><path stroke="black" stroke-width="5px" class="fil0" d="M35 205c12,6 38,21 51,29 13,8 12,8 26,-10 14,-18 42,-55 66,-82 24,-28 44,-48 62,-63 17,-16 32,-28 43,-36 11,-8 18,-13 21,-15 4,-2 4,-2 -1,3 -6,6 -16,16 -28,29 -11,13 -25,28 -37,43 -12,14 -24,30 -34,44 -10,14 -19,28 -29,46 -11,18 -24,42 -35,62 -11,20 -20,37 -24,46 -5,9 -5,9 -19,-9 -14,-17 -42,-52 -57,-71 -15,-19 -17,-22 -5,-16z"/></g><text x="0" y="348" fill="#000000" font-size="5px" font-weight="bold" font-family="'Helvetica Neue', Helvetica, Arial-Unicode, Arial, Sans-serif">Created by damar bintang</text><text x="0" y="353" fill="#000000" font-size="5px" font-weight="bold" font-family="'Helvetica Neue', Helvetica, Arial-Unicode, Arial, Sans-serif">from the Noun Project</text></svg>