<svg xmlns:xlink="http://www.w3.org/1999/xlink" xmlns="http://www.w3.org/2000/svg" version="1.1" x="0px" y="0px" viewBox="0 0 100 125" enable-background="new 0 0 100 100" xml:space="preserve"><path class="active-color" d="M61.065,46.011c-0.27,0-0.544-0.053-0.808-0.166c-1.048-0.446-1.536-1.658-1.09-2.707l13.088-30.733  c0.446-1.048,1.659-1.537,2.707-1.09c1.048,0.446,1.536,1.658,1.09,2.707L62.965,44.756C62.631,45.541,61.868,46.011,61.065,46.011z  "/><path class="active-color" d="M78.115,54.309c-0.27,0-0.543-0.053-0.806-0.164c-1.049-0.446-1.538-1.657-1.093-2.706l13.571-31.941  c0.446-1.048,1.662-1.535,2.706-1.092c1.049,0.445,1.538,1.657,1.093,2.706l-13.571,31.94  C79.682,53.838,78.918,54.309,78.115,54.309z"/><path class="active-color" d="M68.156,52.527c-0.205,0-0.413-0.041-0.614-0.128c-0.784-0.34-1.145-1.251-0.805-2.035l15.59-36.015  c0.34-0.784,1.246-1.145,2.035-0.806c0.784,0.34,1.145,1.251,0.805,2.035l-15.59,36.015C69.324,52.178,68.755,52.527,68.156,52.527z  "/><path class="active-color" d="M58.746,89.266c-1.745,0-3.781-0.356-6.108-1.313c-9.097-3.743-8.234-10.593-8.193-10.882  c0.032-0.227,0.094-0.447,0.185-0.657l4.004-9.303c0.563-1.31,2.084-1.908,3.389-1.35c1.309,0.563,1.913,2.08,1.35,3.389  l-3.819,8.874c0.043,0.789,0.547,3.306,5.049,5.157c4.575,1.884,7.044,0.387,7.752-0.175l3.796-8.824  c0.563-1.308,2.08-1.912,3.389-1.35s1.913,2.08,1.35,3.389l-4.003,9.305c-0.104,0.244-0.247,0.471-0.422,0.672  C66.318,86.362,63.721,89.266,58.746,89.266z"/><path class="active-color" d="M70.835,68.806c-12.018,0-17.991-7.658-18.249-7.997c-0.69-0.907-0.515-2.201,0.392-2.892  c0.905-0.688,2.195-0.514,2.887,0.385c0.228,0.294,5.484,6.87,16.208,6.347c1.117-0.067,2.107,0.819,2.164,1.957  c0.058,1.139-0.819,2.107-1.957,2.164C71.788,68.794,71.307,68.806,70.835,68.806z"/><path class="active-color" d="M73.774,61.491c-12.018,0-17.991-7.658-18.249-7.997c-0.69-0.907-0.515-2.201,0.392-2.892  c0.905-0.688,2.195-0.515,2.887,0.385c0.228,0.294,5.494,6.875,16.208,6.347c1.12-0.063,2.107,0.818,2.164,1.957  c0.058,1.139-0.819,2.107-1.957,2.164C74.728,61.479,74.246,61.491,73.774,61.491z"/><path class="active-color" d="M55.92,91.52c0,0.561-0.439,1-1,1H20.43c-0.27,0-0.52-0.1-0.71-0.289L8.56,81.07  c-0.29-0.29-0.37-0.721-0.22-1.09c0.16-0.381,0.52-0.62,0.92-0.62h29.8c0.53,0,0.96,0.409,1,0.939c0.03,0.521-0.35,0.99-0.88,1.05  c-2.78,0.36-7.56,1.54-8.54,3.221c-0.19,0.319-0.2,0.62-0.05,0.989c1.21,2.96,14.95,4.681,24.33,4.96  C55.48,90.52,55.92,90.97,55.92,91.52z"/></svg>