<svg xmlns="http://www.w3.org/2000/svg" data-name="Layer 1" viewBox="0 0 100 125" x="0px" y="0px">
 <g>
 <title>09</title>
 <title>Layer 1</title>
  <rect id="svg_7" height="19.126984" width="29.68254" y="50" x="33.253968" fill-opacity="null" stroke-opacity="null" stroke-width="null" stroke="#000000" fill="#ffff00"/>
  <rect id="svg_6" height="16.190476" width="41.746032" y="35.15873" x="29.285714" fill-opacity="null" stroke-opacity="null" stroke-width="null" stroke="null" fill="#ffff00"/>
  <path fill="#ffff00" stroke="#000000" id="svg_2" d="m74.961905,1.961905a4,4 0 0 0 -4,4l0,21.9l-42.4,0l0,-21.9a4,4 0 0 0 -8,0l0,25.9a4,4 0 0 0 0.4,1.7l6.6,13.7a55.1,55.1 0 0 1 5.4,23.7a4,4 0 0 0 2.1,3.5l0,19.1a4,4 0 0 0 5.6,3.7l21.6,-9.2a4,4 0 0 0 2.4,-3.7l0,-9.9a4,4 0 0 0 2.1,-3.5a55.1,55.1 0 0 1 5.4,-23.7l6.6,-13.7a4,4 0 0 0 0.4,-1.7l0,-25.9a4,4 0 0 0 -4.2,-4zm-16.2,65l-18,0a63.2,63.2 0 0 0 -6.1,-23.2l-3.8,-7.9l37.8,0c-5.157143,9.652381 -8.028572,20.019048 -9.9,31.1z" class="active-color"/>
  <line stroke-linecap="null" stroke-linejoin="null" id="svg_3" y2="74.603175" x2="65.079365" y1="74.603175" x1="35.47619" stroke-width="null" stroke="#000000" fill="none"/>
 </g>
</svg>