<svg xmlns="http://www.w3.org/2000/svg" data-name="Layer 1" viewBox="0 0 100 125" x="0px" y="0px">
    <title>09</title>
    <g data-name="Group">
        <path class="active-color" data-name="Compound Path" d="M75.2,2.2a4,4,0,0,0-4,4V28.1H28.8V6.2a4,4,0,0,0-8,0V32.1a4,4,0,0,0,.4,1.7l6.6,13.7a55.1,55.1,0,0,1,5.4,23.7,4,4,0,0,0,2.1,3.5V93.8a4,4,0,0,0,5.6,3.7l21.6-9.2a4,4,0,0,0,2.4-3.7V74.7a4,4,0,0,0,2.1-3.5,55.1,55.1,0,0,1,5.4-23.7l6.6-13.7a4,4,0,0,0,.4-1.7V6.2A4,4,0,0,0,75.2,2.2Zm-32,85.5V75.2H56.8v6.7ZM65.1,44A63.2,63.2,0,0,0,59,67.2H41A63.2,63.2,0,0,0,34.9,44l-3.8-7.9H68.9Z"/>
    </g>
</svg>
