<svg xmlns="http://www.w3.org/2000/svg" xmlns:xlink="http://www.w3.org/1999/xlink" version="1.1" x="0px" y="0px" viewBox="0 0 100 125" style="enable-background:new 0 0 100 100;" xml:space="preserve"><style type="text/css">
	.st0{fill:#231F20;}
</style><g><g><path class="st0" d="M81.7,84.5c-0.1,0-0.2,0-0.2,0l-37.3-3c-1.5-0.1-2.7-1.5-2.6-3c0.1-1.5,1.5-2.7,3-2.6l34,2.8l-2.8-34    c-0.1-1.6,1-2.9,2.6-3c1.5-0.1,2.9,1,3,2.6l3,37.3c0.1,0.8-0.2,1.6-0.8,2.2C83.1,84.2,82.4,84.5,81.7,84.5z"/></g><g><path class="st0" d="M81.7,84.5c-0.7,0-1.4-0.3-2-0.8L16.3,20.3c-1.1-1.1-1.1-2.9,0-4c1.1-1.1,2.9-1.1,4,0l63.4,63.4    c1.1,1.1,1.1,2.9,0,4C83.1,84.2,82.4,84.5,81.7,84.5z"/></g></g><text x="0" y="115" fill="#000000" font-size="5px" font-weight="bold" font-family="'Helvetica Neue', Helvetica, Arial-Unicode, Arial, Sans-serif">Created by Royyan Wijaya</text><text x="0" y="120" fill="#000000" font-size="5px" font-weight="bold" font-family="'Helvetica Neue', Helvetica, Arial-Unicode, Arial, Sans-serif">from the Noun Project</text></svg>