<svg xmlns="http://www.w3.org/2000/svg" data-name="Layer 1" viewBox="0 0 100 125" x="0px" y="0px">
    <title>08</title>
    <g data-name="Group">
        <path class="active-color" data-name="Compound Path" d="M27.9,6.3v48a1,1,0,0,0,.1.5L47.3,92.1a3,3,0,0,0,5.3,0L72,54.8a1,1,0,0,0,.1-.5V6.3h-2V52.5l-2.6-1.7a9,9,0,0,0-10.7.6L55,52.9a7,7,0,0,1-4,1.6V6.3H49v48a7,7,0,0,1-3.5-1.9l-.6-.6a9.1,9.1,0,0,0-10.6-1.6l-4.4,2.4V6.3Zm23,84.8a1,1,0,0,1-1.8,0L40.9,75.3H59.1ZM35.2,52a7,7,0,0,1,8.3,1.2l.6.6a9,9,0,0,0,12.1.6l1.8-1.5a7,7,0,0,1,8.3-.5l3.4,2.2L60.1,73.3H39.9L30.2,54.7Z"/>
    </g>
</svg>