<svg xmlns:xlink="http://www.w3.org/1999/xlink" xmlns="http://www.w3.org/2000/svg" viewBox="0 0 100 125" version="1.1" x="0px" y="0px">
    <title>Redo v1.2</title>
    <desc>Created with Sketch.</desc>
    <g stroke="none" stroke-width="1" fill="none" fill-rule="evenodd">
        <g fill-rule="nonzero" fill="#000000">
            <path d="M54.7382824,55.9861534 C45.671859,55.9861534 41.3249489,56.840797 35.0089905,60.1073772 C34.8569276,60.1860233 34.641441,60.3001731 34.3800957,60.4401965 C34.1649321,60.5555314 33.9580515,60.6671175 33.7519877,60.7787249 C33.5323645,60.897831 33.5323645,60.897831 33.4781679,60.9273382 L30.79488,62.388238 L32.095073,59.6235029 C32.1276134,59.5543101 32.1840547,59.4347748 32.2570998,59.2808977 C32.3788632,59.0243907 32.5015672,58.7678136 32.6175894,58.52787 C32.7900436,58.1717641 32.9158904,57.9168689 33.0120665,57.7293688 C37.7236232,48.5439612 44.0824394,44.5384118 54.7435577,44.5384118 L55.6278319,44.5384118 L55.6278319,36.8257038 L69.0644106,50.2622826 L55.6278319,63.6988613 L55.6278319,55.9861534 L54.7382824,55.9861534 Z M54.7382824,53.9861534 L57.6278319,53.9861534 L57.6278319,58.8704342 L66.2359835,50.2622826 L57.6278319,41.6541309 L57.6278319,46.5384118 L54.7435577,46.5384118 C45.2012358,46.5384118 39.5815028,49.8611308 35.271155,57.7368554 C41.3006717,54.7940798 45.9410981,53.9861534 54.7382824,53.9861534 Z"/>
        </g>
    </g>
</svg>