<svg xmlns:xlink="http://www.w3.org/1999/xlink" xmlns="http://www.w3.org/2000/svg" version="1.1" x="0px" y="0px" viewBox="0 0 100 125" enable-background="new 0 0 100 100" xml:space="preserve"><path d="M42.69,81.753c0.013,0,0.025,0,0.038,0c1.104-0.021,1.983-0.932,1.963-2.037l-1-53.782c-0.021-1.104-0.939-2.01-2.037-1.962  c-1.104,0.021-1.983,0.932-1.963,2.037l1,53.782C40.712,80.882,41.604,81.753,42.69,81.753z M57.315,81.753  c1.087,0,1.979-0.871,1.999-1.963l1-53.782c0.021-1.104-0.858-2.016-1.963-2.037c-0.013,0-0.025,0-0.038,0  c-1.087,0-1.979,0.871-1.999,1.963l-1,53.782c-0.021,1.104,0.858,2.016,1.963,2.037C57.29,81.753,57.303,81.753,57.315,81.753z   M76.961,23.972c-1.145-0.019-2.028,0.831-2.063,1.935L72.896,88.11c0,1.97-1.601,3.573-3.567,3.573H30.68  c-1.971,0-3.573-1.603-3.574-3.638l-2-62.14c-0.036-1.104-0.938-1.958-2.063-1.935c-1.104,0.036-1.97,0.959-1.935,2.063  l1.999,62.075c0,4.176,3.397,7.573,7.573,7.573h38.649c4.173,0,7.567-3.397,7.566-7.509l2-62.14  C78.931,24.931,78.064,24.007,76.961,23.972z M82.02,13.972H65.912l-1.67-8.061c-0.192-0.928-1.01-1.594-1.958-1.594h-24.56  c-0.948,0-1.766,0.666-1.958,1.594l-1.67,8.061H17.98c-1.104,0-2,0.896-2,2s0.896,2,2,2h17.74c0,0,0.001,0,0.002,0h28.554  c0.002,0,0.004,0,0.006,0c0.001,0,0.003,0,0.005,0H82.02c1.104,0,2-0.896,2-2S83.124,13.972,82.02,13.972z M38.181,13.972  l1.172-5.655h21.304l1.172,5.655H38.181z"/></svg>