<svg xmlns="http://www.w3.org/2000/svg" xmlns:xlink="http://www.w3.org/1999/xlink" viewBox="0 0 100 125" version="1.1" x="0px" y="0px">
    <title>Undo v1.2</title>
    <desc>Created with Sketch.</desc>
    <g stroke="none" stroke-width="1" fill="none" fill-rule="evenodd">
        <g fill-rule="nonzero" fill="#000000">
            <path d="M42.3670089,53.9861534 L45.2565584,53.9861534 C54.0537426,53.9861534 58.6941691,54.7940798 64.7236858,57.7368554 C60.413338,49.8611308 54.793605,46.5384118 45.2512831,46.5384118 L42.3670089,46.5384118 L42.3670089,41.6541309 L33.7588573,50.2622826 L42.3670089,58.8704342 L42.3670089,53.9861534 Z M45.2512831,44.5384118 C55.9124014,44.5384118 62.2712176,48.5439612 66.9827743,57.7293688 C67.0789504,57.9168689 67.2047971,58.1717641 67.3541053,58.4800406 C67.4932736,58.7678136 67.6159776,59.0243907 67.737741,59.2808977 C67.8107861,59.4347748 67.8672274,59.5543101 67.8997678,59.6235029 L69.1999608,62.388238 L66.5166729,60.9273382 C66.4624763,60.897831 66.4624763,60.897831 66.2428531,60.7787249 C66.0367893,60.6671175 65.8299086,60.5555314 65.6358926,60.4515297 C65.3533998,60.3001731 65.1379131,60.1860233 64.9858503,60.1073772 C58.6698919,56.840797 54.3229818,55.9861534 45.2565584,55.9861534 L44.3670089,55.9861534 L44.3670089,63.6988613 L30.9304302,50.2622826 L44.3670089,36.8257038 L44.3670089,44.5384118 L45.2512831,44.5384118 Z"/>
        </g>
    </g>
</svg>